<svg width="100" height="90" viewBox="0 0 100 90" fill="none" xmlns="http://www.w3.org/2000/svg">
<path d="M51.211 0.193457L47.9572 1.03255L7.86942 11.3704L4.61559 12.2095C3.03622 12.6187 1.68366 13.6376 0.854632 15.0428C0.0256082 16.448 -0.212171 18.1247 0.193461 19.7049L14.3028 74.4176C14.7119 75.997 15.7309 77.3495 17.1361 78.1786C18.5413 79.0076 20.2179 79.2454 21.7982 78.8397L21.8066 78.8376L68.3852 66.8259L68.3937 66.8237C69.973 66.4145 71.3256 65.3956 72.1546 63.9904C72.9836 62.5852 73.2214 60.9085 72.8158 59.3283L58.7065 4.61561C58.2973 3.03624 57.2783 1.68367 55.8731 0.854642C54.468 0.0256129 52.7913 -0.212171 51.211 0.193457Z" fill="#483698"/>
<path d="M51.6534 1.90885L47.7995 2.9027L8.91184 12.9311L5.05797 13.9249C3.93326 14.2163 2.97007 14.9419 2.3797 15.9426C1.78933 16.9432 1.62 18.1372 1.90885 19.2626L16.0181 73.9752C16.3095 75.0999 17.0352 76.0631 18.0358 76.6535C19.0365 77.2439 20.2305 77.4132 21.3558 77.1243L21.3642 77.1222L67.9428 65.1105L67.9513 65.1083C69.076 64.8169 70.0392 64.0913 70.6295 63.0906C71.2199 62.09 71.3892 60.896 71.1003 59.7706L56.991 5.05797C56.6997 3.93328 55.9741 2.97009 54.9734 2.37972C53.9728 1.78934 52.7788 1.62001 51.6534 1.90885Z" fill="white"/>
<path d="M48.7434 19.6263L25.1804 25.7027C24.9172 25.7705 24.6379 25.7311 24.4038 25.593C24.1697 25.4549 24.0001 25.2294 23.9322 24.9663C23.8643 24.7031 23.9038 24.4237 24.0419 24.1897C24.18 23.9556 24.4054 23.7859 24.6686 23.7181L48.2316 17.6417C48.4947 17.5741 48.7738 17.6137 49.0077 17.7518C49.2416 17.8899 49.4111 18.1153 49.4789 18.3783C49.5467 18.6413 49.5074 18.9205 49.3694 19.1545C49.2315 19.3885 49.0063 19.5582 48.7434 19.6263Z" fill="#F2F2F2"/>
<path d="M53.7003 21.9197L26.044 29.0517C25.7809 29.1196 25.5015 29.0801 25.2674 28.942C25.0333 28.8039 24.8637 28.5785 24.7958 28.3153C24.728 28.0521 24.7674 27.7728 24.9055 27.5387C25.0436 27.3046 25.2691 27.135 25.5322 27.0671L53.1885 19.9351C53.4516 19.8672 53.731 19.9067 53.9651 20.0448C54.1992 20.1829 54.3688 20.4083 54.4367 20.6715C54.5045 20.9347 54.4651 21.214 54.327 21.4481C54.1889 21.6822 53.9634 21.8518 53.7003 21.9197Z" fill="#F2F2F2"/>
<path d="M52.6138 34.6348L29.0508 40.7112C28.9205 40.7448 28.7848 40.7524 28.6516 40.7336C28.5183 40.7148 28.3901 40.6699 28.2742 40.6015C28.1583 40.5332 28.057 40.4426 27.9761 40.3351C27.8951 40.2275 27.8362 40.1051 27.8026 39.9748C27.769 39.8445 27.7614 39.7089 27.7802 39.5756C27.799 39.4424 27.8439 39.3141 27.9123 39.1982C27.9807 39.0823 28.0712 38.981 28.1787 38.9001C28.2863 38.8192 28.4087 38.7602 28.539 38.7266L52.102 32.6502C52.2323 32.6166 52.368 32.609 52.5012 32.6278C52.6345 32.6466 52.7627 32.6915 52.8786 32.7599C52.9945 32.8283 53.0958 32.9188 53.1767 33.0263C53.2577 33.1339 53.3166 33.2563 53.3502 33.3866C53.3838 33.5169 53.3914 33.6526 53.3726 33.7858C53.3538 33.9191 53.3089 34.0473 53.2405 34.1632C53.1721 34.2791 53.0816 34.3804 52.9741 34.4613C52.8665 34.5423 52.7441 34.6012 52.6138 34.6348Z" fill="#F2F2F2"/>
<path d="M57.5707 36.9283L29.9145 44.0602C29.7841 44.0938 29.6485 44.1015 29.5152 44.0826C29.382 44.0638 29.2537 44.0189 29.1378 43.9505C29.0219 43.8822 28.9206 43.7916 28.8397 43.6841C28.7588 43.5766 28.6999 43.4541 28.6663 43.3238C28.6327 43.1935 28.625 43.0579 28.6439 42.9246C28.6627 42.7914 28.7076 42.6631 28.776 42.5472C28.8443 42.4313 28.9349 42.33 29.0424 42.2491C29.1499 42.1682 29.2724 42.1092 29.4027 42.0756L57.0589 34.9437C57.3221 34.8758 57.6014 34.9152 57.8355 35.0533C58.0696 35.1914 58.2392 35.4169 58.3071 35.6801C58.375 35.9432 58.3355 36.2226 58.1974 36.4567C58.0593 36.6908 57.8339 36.8604 57.5707 36.9283Z" fill="#F2F2F2"/>
<path d="M56.4842 49.6434L32.9212 55.7198C32.6581 55.7874 32.3789 55.7479 32.145 55.6097C31.9111 55.4716 31.7415 55.2463 31.6737 54.9832C31.6059 54.7201 31.6453 54.4409 31.7832 54.2069C31.9212 53.9729 32.1464 53.8032 32.4094 53.7352L55.9724 47.6588C56.2356 47.5909 56.5149 47.6303 56.749 47.7684C56.9831 47.9065 57.1527 48.132 57.2206 48.3952C57.2885 48.6583 57.249 48.9377 57.1109 49.1718C56.9728 49.4059 56.7474 49.5755 56.4842 49.6434Z" fill="#F2F2F2"/>
<path d="M61.4411 51.9368L33.7849 59.0688C33.6545 59.1025 33.5188 59.1102 33.3854 59.0915C33.2521 59.0728 33.1238 59.0279 33.0078 58.9595C32.8918 58.8912 32.7904 58.8006 32.7094 58.693C32.6284 58.5855 32.5694 58.463 32.5358 58.3326C32.5022 58.2022 32.4946 58.0665 32.5134 57.9332C32.5323 57.7998 32.5772 57.6715 32.6457 57.5556C32.7142 57.4397 32.8048 57.3383 32.9125 57.2575C33.0201 57.1766 33.1427 57.1177 33.2731 57.0842L60.9293 49.9522C61.1925 49.8843 61.4718 49.9238 61.7059 50.0619C61.94 50.2 62.1096 50.4254 62.1775 50.6886C62.2454 50.9518 62.2059 51.2311 62.0678 51.4652C61.9297 51.6993 61.7043 51.8689 61.4411 51.9368Z" fill="#F2F2F2"/>
<path d="M21.1579 31.9332L12.8191 34.0836C12.6929 34.116 12.5591 34.097 12.4469 34.0308C12.3347 33.9646 12.2533 33.8566 12.2206 33.7305L10.3065 26.3078C10.2741 26.1816 10.2931 26.0478 10.3593 25.9356C10.4255 25.8233 10.5335 25.742 10.6596 25.7093L18.9983 23.5589C19.1245 23.5265 19.2584 23.5455 19.3706 23.6117C19.4828 23.6779 19.5641 23.7859 19.5968 23.912L21.511 31.3347C21.5434 31.4609 21.5244 31.5947 21.4582 31.7069C21.392 31.8191 21.284 31.9005 21.1579 31.9332Z" fill="#E6E6E6"/>
<path d="M25.0282 46.9417L16.6895 49.0921C16.5633 49.1245 16.4295 49.1055 16.3173 49.0393C16.2051 48.9731 16.1237 48.8651 16.091 48.739L14.1769 41.3164C14.1445 41.1902 14.1635 41.0563 14.2297 40.9441C14.2959 40.8319 14.4039 40.7505 14.53 40.7179L22.8687 38.5675C22.9949 38.5351 23.1288 38.5541 23.241 38.6203C23.3532 38.6865 23.4345 38.7945 23.4672 38.9206L25.3813 46.3432C25.4137 46.4694 25.3947 46.6033 25.3285 46.7155C25.2624 46.8277 25.1543 46.909 25.0282 46.9417Z" fill="#E6E6E6"/>
<path d="M28.8987 61.9502L20.5599 64.1006C20.4338 64.133 20.2999 64.114 20.1877 64.0478C20.0755 63.9816 19.9941 63.8736 19.9614 63.7475L18.0473 56.3249C18.0149 56.1987 18.0339 56.0648 18.1001 55.9526C18.1663 55.8404 18.2743 55.759 18.4004 55.7264L26.7391 53.576C26.8653 53.5436 26.9992 53.5626 27.1114 53.6288C27.2236 53.695 27.305 53.803 27.3376 53.9291L29.2518 61.3517C29.2842 61.4779 29.2652 61.6118 29.199 61.724C29.1328 61.8362 29.0248 61.9176 28.8987 61.9502Z" fill="#E6E6E6"/>
<path d="M83.709 14.0624H35.5892C33.9576 14.0643 32.3935 14.7132 31.2398 15.8669C30.0862 17.0205 29.4373 18.5847 29.4354 20.2162V76.7188C29.4373 78.3504 30.0862 79.9145 31.2398 81.0682C32.3935 82.2218 33.9576 82.8708 35.5892 82.8726H83.709C85.3405 82.8708 86.9046 82.2218 88.0583 81.0682C89.2119 79.9145 89.8609 78.3504 89.8627 76.7188V20.2162C89.8609 18.5847 89.2119 17.0205 88.0583 15.8669C86.9046 14.7132 85.3405 14.0643 83.709 14.0624Z" fill="#483698"/>
<path d="M83.7091 15.834H35.5892C34.4273 15.8353 33.3134 16.2974 32.4919 17.1189C31.6704 17.9405 31.2082 19.0544 31.2069 20.2162V76.7188C31.2082 77.8807 31.6704 78.9946 32.4919 79.8161C33.3134 80.6376 34.4273 81.0998 35.5892 81.1011H83.7091C84.8709 81.0997 85.9848 80.6376 86.8063 79.8161C87.6279 78.9945 88.09 77.8807 88.0913 76.7188V20.2162C88.09 19.0544 87.6279 17.9405 86.8063 17.119C85.9848 16.2974 84.8709 15.8353 83.7091 15.834Z" fill="white"/>
<path d="M88.7644 89.7472C94.9684 89.7472 99.9978 84.7178 99.9978 78.5137C99.9978 72.3097 94.9684 67.2803 88.7644 67.2803C82.5603 67.2803 77.5309 72.3097 77.5309 78.5137C77.5309 84.7178 82.5603 89.7472 88.7644 89.7472Z" fill="#483698"/>
<path d="M94.1369 77.0485H90.2296V73.1412C90.2296 72.7526 90.0752 72.38 89.8004 72.1052C89.5257 71.8304 89.153 71.676 88.7644 71.676C88.3758 71.676 88.0031 71.8304 87.7283 72.1052C87.4535 72.38 87.2991 72.7526 87.2991 73.1412V77.0485H83.3919C83.0033 77.0485 82.6306 77.2029 82.3558 77.4777C82.081 77.7525 81.9266 78.1251 81.9266 78.5138C81.9266 78.9024 82.081 79.275 82.3558 79.5498C82.6306 79.8246 83.0033 79.979 83.3919 79.979H87.2991V83.8863C87.2991 84.2749 87.4535 84.6476 87.7283 84.9223C88.0031 85.1971 88.3758 85.3515 88.7644 85.3515C89.153 85.3515 89.5257 85.1971 89.8004 84.9223C90.0752 84.6476 90.2296 84.2749 90.2296 83.8863V79.979H94.1369C94.5255 79.979 94.8982 79.8246 95.1729 79.5498C95.4477 79.275 95.6021 78.9024 95.6021 78.5138C95.6021 78.1251 95.4477 77.7525 95.1729 77.4777C94.8982 77.2029 94.5255 77.0485 94.1369 77.0485Z" fill="white"/>
<path d="M76.4669 46.882H52.1331C51.9984 46.8822 51.865 46.8558 51.7406 46.8044C51.6161 46.7529 51.503 46.6775 51.4077 46.5823C51.3125 46.4871 51.2369 46.3741 51.1853 46.2497C51.1337 46.1253 51.1072 45.9919 51.1072 45.8573C51.1072 45.7226 51.1337 45.5892 51.1853 45.4648C51.2369 45.3404 51.3125 45.2274 51.4077 45.1322C51.503 45.0371 51.6161 44.9616 51.7406 44.9102C51.865 44.8587 51.9984 44.8324 52.1331 44.8325H76.4669C76.7385 44.8328 76.9989 44.9409 77.1908 45.1331C77.3827 45.3252 77.4906 45.5857 77.4906 45.8573C77.4906 46.1289 77.3827 46.3893 77.1908 46.5815C76.9989 46.7736 76.7385 46.8817 76.4669 46.882Z" fill="#E6E6E6"/>
<path d="M80.6941 50.3406H52.1331C51.9984 50.3407 51.865 50.3143 51.7406 50.2629C51.6161 50.2115 51.503 50.136 51.4077 50.0409C51.3125 49.9457 51.2369 49.8327 51.1853 49.7083C51.1337 49.5839 51.1072 49.4505 51.1072 49.3158C51.1072 49.1812 51.1337 49.0478 51.1853 48.9234C51.2369 48.799 51.3125 48.686 51.4077 48.5908C51.503 48.4956 51.6161 48.4202 51.7406 48.3688C51.865 48.3173 51.9984 48.2909 52.1331 48.2911H80.6941C80.9659 48.2911 81.2265 48.399 81.4187 48.5912C81.6109 48.7834 81.7189 49.0441 81.7189 49.3158C81.7189 49.5876 81.6109 49.8483 81.4187 50.0404C81.2265 50.2326 80.9659 50.3406 80.6941 50.3406Z" fill="#E6E6E6"/>
<path d="M76.4669 62.3816H52.1331C51.9984 62.3818 51.865 62.3554 51.7406 62.3039C51.6161 62.2525 51.503 62.177 51.4077 62.0819C51.3125 61.9867 51.2369 61.8737 51.1853 61.7493C51.1337 61.6249 51.1072 61.4915 51.1072 61.3568C51.1072 61.2222 51.1337 61.0888 51.1853 60.9644C51.2369 60.84 51.3125 60.727 51.4077 60.6318C51.503 60.5367 51.6161 60.4612 51.7406 60.4098C51.865 60.3583 51.9984 60.3319 52.1331 60.3321H76.4669C76.7387 60.3321 76.9994 60.4401 77.1916 60.6322C77.3837 60.8244 77.4917 61.0851 77.4917 61.3568C77.4917 61.6286 77.3837 61.8893 77.1916 62.0815C76.9994 62.2736 76.7387 62.3816 76.4669 62.3816Z" fill="#E6E6E6"/>
<path d="M80.6941 65.8402H52.1331C51.9984 65.8403 51.8651 65.8139 51.7406 65.7625C51.6161 65.7111 51.503 65.6356 51.4077 65.5404C51.3125 65.4453 51.2369 65.3322 51.1853 65.2078C51.1337 65.0834 51.1072 64.9501 51.1072 64.8154C51.1072 64.6807 51.1337 64.5474 51.1853 64.423C51.2369 64.2986 51.3125 64.1856 51.4077 64.0904C51.503 63.9952 51.6161 63.9198 51.7406 63.8683C51.8651 63.8169 51.9984 63.7905 52.1331 63.7906H80.6941C80.8288 63.7905 80.9622 63.8169 81.0867 63.8683C81.2111 63.9198 81.3242 63.9952 81.4195 64.0904C81.5148 64.1856 81.5904 64.2986 81.6419 64.423C81.6935 64.5474 81.7201 64.6807 81.7201 64.8154C81.7201 64.9501 81.6935 65.0834 81.6419 65.2078C81.5904 65.3322 81.5148 65.4453 81.4195 65.5404C81.3242 65.6356 81.2111 65.7111 81.0867 65.7625C80.9622 65.8139 80.8288 65.8403 80.6941 65.8402Z" fill="#E6E6E6"/>
<path d="M46.6822 51.9107H38.0706C37.9404 51.9105 37.8155 51.8587 37.7233 51.7666C37.6312 51.6745 37.5794 51.5496 37.5793 51.4193V43.7538C37.5794 43.6236 37.6312 43.4987 37.7233 43.4065C37.8155 43.3144 37.9404 43.2626 38.0706 43.2625H46.6822C46.8124 43.2626 46.9373 43.3144 47.0295 43.4065C47.1216 43.4987 47.1734 43.6236 47.1735 43.7538V51.4193C47.1734 51.5496 47.1216 51.6745 47.0295 51.7666C46.9373 51.8587 46.8124 51.9105 46.6822 51.9107Z" fill="#E6E6E6"/>
<path d="M46.6822 67.4102H38.0706C37.9404 67.4101 37.8155 67.3583 37.7233 67.2662C37.6312 67.174 37.5794 67.0491 37.5793 66.9188V59.2534C37.5794 59.1231 37.6312 58.9982 37.7233 58.9061C37.8155 58.814 37.9404 58.7622 38.0706 58.762H46.6822C46.8124 58.7622 46.9373 58.814 47.0295 58.9061C47.1216 58.9982 47.1734 59.1231 47.1735 59.2534V66.9188C47.1734 67.0491 47.1216 67.174 47.0295 67.2662C46.9373 67.3583 46.8124 67.4101 46.6822 67.4102Z" fill="#E6E6E6"/>
<path d="M76.494 29.628H58.5536C58.2818 29.628 58.0212 29.52 57.829 29.3278C57.6368 29.1356 57.5288 28.875 57.5288 28.6032C57.5288 28.3314 57.6368 28.0707 57.829 27.8786C58.0212 27.6864 58.2818 27.5784 58.5536 27.5784H76.494C76.7658 27.5784 77.0264 27.6864 77.2186 27.8786C77.4108 28.0707 77.5188 28.3314 77.5188 28.6032C77.5188 28.875 77.4108 29.1356 77.2186 29.3278C77.0264 29.52 76.7658 29.628 76.494 29.628Z" fill="#CCCCCC"/>
<path d="M80.7211 33.0865H58.5536C58.419 33.0865 58.2858 33.06 58.1614 33.0085C58.0371 32.957 57.9241 32.8816 57.829 32.7864C57.7338 32.6912 57.6583 32.5783 57.6068 32.4539C57.5553 32.3296 57.5288 32.1964 57.5288 32.0618C57.5288 31.9272 57.5553 31.7939 57.6068 31.6696C57.6583 31.5453 57.7338 31.4323 57.829 31.3372C57.9241 31.242 58.0371 31.1665 58.1614 31.115C58.2858 31.0635 58.419 31.037 58.5536 31.037H80.7211C80.9929 31.037 81.2536 31.145 81.4458 31.3372C81.6379 31.5293 81.7459 31.79 81.7459 32.0618C81.7459 32.3336 81.6379 32.5942 81.4458 32.7864C81.2536 32.9786 80.9929 33.0865 80.7211 33.0865Z" fill="#CCCCCC"/>
<path d="M54.5831 37.2779H38.0436C37.9134 37.2778 37.7885 37.226 37.6963 37.1338C37.6042 37.0417 37.5524 36.9168 37.5523 36.7865V23.8784C37.5524 23.7481 37.6042 23.6232 37.6963 23.5311C37.7885 23.439 37.9134 23.3872 38.0436 23.387H54.5831C54.7134 23.3872 54.8383 23.439 54.9304 23.5311C55.0225 23.6232 55.0743 23.7481 55.0745 23.8784V36.7865C55.0743 36.9168 55.0225 37.0417 54.9304 37.1338C54.8383 37.226 54.7134 37.2778 54.5831 37.2779Z" fill="#483698"/>
</svg>
