<svg width="100" height="86" viewBox="0 0 100 86" fill="none" xmlns="http://www.w3.org/2000/svg">
<path d="M77.185 82.2389L75.7636 82.7087L73.2752 77.4501L75.373 76.7568L77.185 82.2389Z" fill="#FFB8B8"/>
<path d="M74.6142 82.6382L77.3553 81.7322L77.9258 83.458L73.4588 84.9345C73.3839 84.7079 73.3544 84.4687 73.3719 84.2306C73.3894 83.9926 73.4537 83.7603 73.561 83.547C73.6682 83.3338 73.8165 83.1438 73.9972 82.9879C74.1779 82.8319 74.3876 82.7131 74.6142 82.6382Z" fill="#2F2E41"/>
<path d="M67.8084 83.5444L66.3115 83.5443L65.5994 77.7704L67.8087 77.7706L67.8084 83.5444Z" fill="#FFB8B8"/>
<path d="M65.2422 83.1167H68.1292V84.9343H63.4245C63.4245 84.6956 63.4716 84.4593 63.5629 84.2387C63.6543 84.0182 63.7881 83.8178 63.9569 83.649C64.1257 83.4803 64.3261 83.3464 64.5466 83.255C64.7672 83.1637 65.0035 83.1167 65.2422 83.1167Z" fill="#2F2E41"/>
<path d="M66.4248 62.1111L66.3485 62.4489C65.3171 67.0166 64.9498 73.6627 65.2578 78.3352L65.4958 81.9447C65.504 82.0684 65.5589 82.1843 65.6494 82.2691C65.7399 82.3538 65.8592 82.4009 65.9832 82.4009H67.7778C67.8975 82.4009 68.0129 82.357 68.1024 82.2775C68.1918 82.198 68.2489 82.0884 68.2629 81.9696L69.6557 70.1302C69.6688 70.0192 69.7195 69.9161 69.7994 69.838C69.8793 69.7599 69.9835 69.7115 70.0948 69.701C70.206 69.6905 70.3175 69.7184 70.4106 69.7801C70.5037 69.8418 70.5729 69.9336 70.6065 70.0402L74.2165 80.739C74.2461 80.8329 74.3035 80.9157 74.381 80.9764C74.4585 81.0371 74.5525 81.073 74.6508 81.0793L77.3921 81.2562C77.4712 81.2613 77.5504 81.2471 77.6228 81.2147C77.6952 81.1824 77.7586 81.1329 77.8076 81.0705C77.8566 81.0082 77.8896 80.9348 77.9039 80.8568C77.9182 80.7788 77.9133 80.6985 77.8896 80.6229L76.2395 76.0858C74.9645 72.0141 74.2791 65.8271 74.2043 61.5611C74.2031 61.4938 74.188 61.4274 74.16 61.3662C74.132 61.305 74.0916 61.2503 74.0414 61.2054C73.9912 61.1606 73.9322 61.1266 73.8683 61.1056C73.8043 61.0846 73.7367 61.0771 73.6697 61.0834L66.8549 61.7325C66.7525 61.7422 66.6557 61.7841 66.5785 61.8521C66.5012 61.9201 66.4475 62.0107 66.4248 62.1111Z" fill="#2F2E41"/>
<path d="M70.4152 43.145C72.0715 43.145 73.4141 41.8023 73.4141 40.1461C73.4141 38.4898 72.0715 37.1472 70.4152 37.1472C68.759 37.1472 67.4163 38.4898 67.4163 40.1461C67.4163 41.8023 68.759 43.145 70.4152 43.145Z" fill="#A0616A"/>
<path d="M68.4466 63.0936C67.8494 63.0924 67.2526 63.0609 66.6585 62.9993C66.4676 62.9785 66.2925 62.8839 66.1705 62.7357C66.0485 62.5875 65.9893 62.3975 66.0055 62.2062L67.028 52.3276C67.2746 49.5333 67.6555 46.836 69.5829 44.5517C69.6484 44.4742 69.7291 44.4112 69.8202 44.3665C69.9112 44.3218 70.0105 44.2964 70.1118 44.292L70.1842 44.2892C70.9445 44.2575 71.2949 44.2852 71.3935 44.3839L71.9237 44.9064C75.1574 47.2978 75.2917 62.4475 74.4951 62.149C74.3409 62.0915 72.5006 62.1492 72.3725 62.2366C71.3337 62.9447 69.6643 63.0935 68.4466 63.0936Z" fill="#483698"/>
<path d="M56.6804 57.6103C56.7567 57.4478 56.8678 57.3041 57.0057 57.1892C57.1436 57.0743 57.305 56.991 57.4785 56.9452C57.6521 56.8995 57.8336 56.8923 58.0102 56.9242C58.1869 56.9562 58.3543 57.0265 58.5009 57.1302L62.0495 54.5916L62.1356 56.8573L58.7525 58.9207C58.562 59.1553 58.2921 59.3118 57.9939 59.3607C57.6956 59.4096 57.3898 59.3474 57.1344 59.1859C56.879 59.0243 56.6917 58.7747 56.608 58.4843C56.5243 58.1939 56.5501 57.8829 56.6804 57.6103Z" fill="#A0616A"/>
<path d="M60.2047 58.2801L59.0028 56.1642L69.9512 48.2699C70.1982 48.0918 70.4794 47.9665 70.777 47.9019C71.0747 47.8373 71.3825 47.8348 71.6812 47.8945C71.9799 47.9543 72.263 48.075 72.5129 48.2491C72.7629 48.4232 72.9742 48.6469 73.1338 48.9064C73.2933 49.1659 73.3976 49.4555 73.4402 49.7571C73.4828 50.0587 73.4627 50.3658 73.3812 50.6593C73.2997 50.9528 73.1586 51.2263 72.9666 51.4628C72.7747 51.6993 72.536 51.8936 72.2655 52.0337L60.2047 58.2801Z" fill="#483698"/>
<path d="M71.7626 42.6816C71.8642 42.7817 71.9984 42.8419 72.1408 42.851C72.2831 42.8601 72.4239 42.8176 72.5374 42.7312C73.2442 42.2073 73.8647 41.5552 74.2319 40.7597C74.6527 39.8482 74.6996 38.7298 74.1923 37.8635C73.7635 37.1311 73.0062 36.6586 72.2514 36.2705C71.9584 36.1051 71.6427 35.9835 71.3145 35.9094C70.9827 35.8362 70.6355 35.8922 70.3436 36.0661C70.2007 36.1556 70.0882 36.2861 70.0207 36.4406C69.9532 36.595 69.9337 36.7662 69.965 36.9319C69.6024 36.5182 69.1381 36.2065 68.618 36.0276C68.2905 35.8995 67.9318 35.8735 67.5892 35.9531C67.1103 36.0889 66.7606 36.5145 66.5694 36.9741C66.4147 37.3237 66.3613 37.7098 66.4153 38.0882C66.4436 38.2766 66.5112 38.4569 66.6137 38.6175C66.7161 38.778 66.8511 38.9153 67.01 39.0204C67.4059 39.2654 67.9111 39.2478 68.3659 39.1477C68.8207 39.0476 69.2609 38.8735 69.7244 38.8295C70.188 38.7854 70.7042 38.901 70.9863 39.2715C71.185 39.5324 71.236 39.8732 71.2806 40.1981L71.5126 41.8879C71.5316 42.1323 71.594 42.3714 71.6969 42.5939C71.7148 42.626 71.7369 42.6555 71.7626 42.6816Z" fill="#2F2E41"/>
<path d="M78.2331 63.6939C78.0876 63.5887 77.9669 63.453 77.8795 63.2962C77.7921 63.1394 77.7402 62.9654 77.7274 62.7863C77.7146 62.6073 77.7412 62.4276 77.8053 62.2599C77.8694 62.0923 77.9695 61.9407 78.0986 61.816L76.2614 57.8584L78.5038 58.1936L79.9047 61.9004C80.0999 62.131 80.2038 62.4253 80.1966 62.7274C80.1893 63.0295 80.0715 63.3185 79.8655 63.5396C79.6594 63.7607 79.3794 63.8985 79.0786 63.9269C78.7777 63.9553 78.4769 63.8724 78.2331 63.6939V63.6939Z" fill="#A0616A"/>
<path d="M79.4616 59.4898L77.3457 60.6918L69.4514 49.7434C69.2733 49.4964 69.148 49.2152 69.0834 48.9175C69.0188 48.6199 69.0163 48.3121 69.076 48.0134C69.1358 47.7147 69.2565 47.4316 69.4306 47.1817C69.6047 46.9317 69.8284 46.7204 70.0879 46.5608C70.3474 46.4013 70.637 46.297 70.9386 46.2544C71.2402 46.2118 71.5473 46.2319 71.8408 46.3134C72.1343 46.3949 72.4078 46.536 72.6443 46.728C72.8808 46.9199 73.0752 47.1586 73.2152 47.4291L79.4616 59.4898Z" fill="#483698"/>
<path d="M60.1898 20.1811H59.7232V7.3985C59.7232 5.4363 58.9437 3.55446 57.5562 2.16697C56.1687 0.779483 54.2869 9.71488e-07 52.3247 0H25.2421C23.2799 0 21.3981 0.779482 20.0106 2.16697C18.6231 3.55446 17.8436 5.43629 17.8436 7.3985V77.5259C17.8436 79.4881 18.6231 81.3699 20.0106 82.7574C21.3981 84.1449 23.2799 84.9244 25.2421 84.9244H52.3247C54.2868 84.9244 56.1686 84.1449 57.5561 82.7574C58.9436 81.3699 59.723 79.4881 59.723 77.5259V29.28H60.1896L60.1898 20.1811Z" fill="#483698"/>
<path d="M52.6231 1.92411H49.0883C49.2509 2.32271 49.3129 2.75517 49.269 3.1834C49.225 3.61163 49.0764 4.02248 48.8363 4.37976C48.5962 4.73703 48.2719 5.02977 47.8919 5.23217C47.512 5.43457 47.0881 5.54042 46.6576 5.54041H31.1424C30.7119 5.54038 30.2881 5.4345 29.9082 5.23209C29.5283 5.02967 29.204 4.73693 28.9639 4.37966C28.7238 4.02239 28.5752 3.61156 28.5313 3.18334C28.4874 2.75513 28.5494 2.32269 28.712 1.92411H25.4102C23.9448 1.92411 22.5395 2.50622 21.5033 3.54238C20.4672 4.57854 19.8851 5.98388 19.8851 7.44924V77.4748C19.8851 78.9402 20.4672 80.3455 21.5033 81.3817C22.5395 82.4178 23.9448 83 25.4102 83H52.6231C54.0885 83 55.4938 82.4178 56.53 81.3817C57.5662 80.3455 58.1483 78.9402 58.1483 77.4748V7.44913C58.1482 5.98379 57.5661 4.57848 56.53 3.54234C55.4938 2.5062 54.0885 1.92411 52.6231 1.92411H52.6231Z" fill="white"/>
<path d="M39.0167 43.3455C36.481 43.3455 34.0023 42.5936 31.894 41.1849C29.7857 39.7762 28.1424 37.7739 27.1721 35.4312C26.2017 33.0886 25.9478 30.5108 26.4425 28.0239C26.9372 25.5369 28.1582 23.2525 29.9512 21.4596C31.7442 19.6666 34.0286 18.4455 36.5155 17.9509C39.0025 17.4562 41.5802 17.7101 43.9229 18.6804C46.2655 19.6508 48.2678 21.294 49.6766 23.4023C51.0853 25.5107 51.8372 27.9894 51.8372 30.525C51.8334 33.9241 50.4814 37.1828 48.0779 39.5863C45.6744 41.9897 42.4157 43.3417 39.0167 43.3455ZM39.0167 17.9487C36.5293 17.9487 34.0978 18.6863 32.0297 20.0682C29.9615 21.4501 28.3496 23.4143 27.3977 25.7123C26.4458 28.0103 26.1968 30.539 26.682 32.9785C27.1673 35.4181 28.3651 37.659 30.1239 39.4178C31.8827 41.1767 34.1236 42.3744 36.5632 42.8597C39.0027 43.345 41.5314 43.0959 43.8294 42.144C46.1275 41.1922 48.0916 39.5802 49.4735 37.5121C50.8554 35.4439 51.593 33.0124 51.593 30.525C51.5892 27.1907 50.263 23.9941 47.9053 21.6364C45.5476 19.2787 42.351 17.9525 39.0167 17.9487Z" fill="#D1CFE3"/>
<path d="M43.7254 26.8007C44.8234 25.8729 45.4903 24.4073 45.3154 22.9805C45.1405 21.5536 44.0572 20.242 42.652 19.939C41.2468 19.636 39.645 20.4747 39.2182 21.8474C38.9833 19.2009 38.7126 16.4436 37.3056 14.1899C36.0316 12.1492 33.8249 10.689 31.4334 10.4278C29.0419 10.1666 26.524 11.1532 25.0325 13.0408C23.541 14.9283 23.1758 17.6725 24.2204 19.8396C24.99 21.436 26.4077 22.6241 27.8931 23.5907C32.6321 26.6743 38.5109 27.7162 44.1046 26.893L43.7254 26.8007Z" fill="#E6E6E6"/>
<path d="M27.3974 11.2079C29.3707 12.8151 31.181 14.6127 32.8021 16.5747C35.3391 19.6346 37.3921 23.0653 38.8895 26.7473C38.9991 27.0159 38.5629 27.1329 38.4545 26.8672C36.0045 20.8832 32.0932 15.6089 27.0785 11.5268C26.8533 11.3435 27.1741 11.026 27.3974 11.2079Z" fill="white"/>
<path d="M28.0689 55.9219C28.8107 55.9219 29.412 55.3205 29.412 54.5788C29.412 53.837 28.8107 53.2357 28.0689 53.2357C27.3271 53.2357 26.7258 53.837 26.7258 54.5788C26.7258 55.3205 27.3271 55.9219 28.0689 55.9219Z" fill="#D1CFE3"/>
<path d="M50.3308 55.5556H33.2367C32.9777 55.5556 32.7292 55.4526 32.546 55.2695C32.3629 55.0863 32.2599 54.8378 32.2599 54.5788C32.2599 54.3197 32.3629 54.0712 32.546 53.888C32.7292 53.7049 32.9777 53.602 33.2367 53.602H50.3308C50.5898 53.602 50.8383 53.7049 51.0215 53.888C51.2047 54.0712 51.3076 54.3197 51.3076 54.5788C51.3076 54.8378 51.2047 55.0863 51.0215 55.2695C50.8383 55.4526 50.5898 55.5556 50.3308 55.5556Z" fill="#CCCCCC"/>
<path d="M45.029 55.5673H33.1661C32.9039 55.5673 32.6524 55.4632 32.467 55.2778C32.2816 55.0924 32.1775 54.8409 32.1775 54.5788C32.1775 54.3166 32.2816 54.0651 32.467 53.8797C32.6524 53.6943 32.9039 53.5902 33.1661 53.5902H45.029C45.2912 53.5902 45.5427 53.6943 45.728 53.8797C45.9134 54.0651 46.0176 54.3166 46.0176 54.5788C46.0176 54.8409 45.9134 55.0924 45.728 55.2778C45.5427 55.4632 45.2912 55.5673 45.029 55.5673Z" fill="#483698"/>
<path d="M28.0689 61.7827C28.8107 61.7827 29.412 61.1813 29.412 60.4396C29.412 59.6978 28.8107 59.0965 28.0689 59.0965C27.3271 59.0965 26.7258 59.6978 26.7258 60.4396C26.7258 61.1813 27.3271 61.7827 28.0689 61.7827Z" fill="#D1CFE3"/>
<path d="M50.3308 61.4164H33.2367C32.9777 61.4164 32.7292 61.3135 32.546 61.1303C32.3629 60.9471 32.2599 60.6986 32.2599 60.4396C32.2599 60.1805 32.3629 59.9321 32.546 59.7489C32.7292 59.5657 32.9777 59.4628 33.2367 59.4628H50.3308C50.5898 59.4628 50.8383 59.5657 51.0215 59.7489C51.2047 59.9321 51.3076 60.1805 51.3076 60.4396C51.3076 60.6986 51.2047 60.9471 51.0215 61.1303C50.8383 61.3135 50.5898 61.4164 50.3308 61.4164Z" fill="#CCCCCC"/>
<path d="M28.0689 67.6435C28.8107 67.6435 29.412 67.0421 29.412 66.3004C29.412 65.5586 28.8107 64.9573 28.0689 64.9573C27.3271 64.9573 26.7258 65.5586 26.7258 66.3004C26.7258 67.0421 27.3271 67.6435 28.0689 67.6435Z" fill="#D1CFE3"/>
<path d="M50.3308 67.2772H33.2367C32.9777 67.2772 32.7292 67.1743 32.546 66.9911C32.3629 66.8079 32.2599 66.5594 32.2599 66.3004C32.2599 66.0413 32.3629 65.7928 32.546 65.6097C32.7292 65.4265 32.9777 65.3236 33.2367 65.3236H50.3308C50.5898 65.3236 50.8383 65.4265 51.0215 65.6097C51.2047 65.7928 51.3076 66.0413 51.3076 66.3004C51.3076 66.5594 51.2047 66.8079 51.0215 66.9911C50.8383 67.1743 50.5898 67.2772 50.3308 67.2772Z" fill="#CCCCCC"/>
<path d="M41.1218 61.4281H33.1661C32.9039 61.4281 32.6524 61.324 32.467 61.1386C32.2816 60.9532 32.1775 60.7018 32.1775 60.4396C32.1775 60.1774 32.2816 59.9259 32.467 59.7406C32.6524 59.5552 32.9039 59.451 33.1661 59.451H41.1218C41.384 59.451 41.6355 59.5552 41.8208 59.7406C42.0062 59.9259 42.1104 60.1774 42.1104 60.4396C42.1104 60.7018 42.0062 60.9532 41.8208 61.1386C41.6355 61.324 41.384 61.4281 41.1218 61.4281Z" fill="#483698"/>
<path d="M48.2036 67.2889H33.1661C32.9039 67.2889 32.6524 67.1848 32.467 66.9994C32.2816 66.814 32.1775 66.5626 32.1775 66.3004C32.1775 66.0382 32.2816 65.7867 32.467 65.6013C32.6524 65.4159 32.9039 65.3118 33.1661 65.3118H48.2036C48.4658 65.3118 48.7173 65.4159 48.9027 65.6013C49.088 65.7867 49.1922 66.0382 49.1922 66.3004C49.1922 66.5626 49.088 66.814 48.9027 66.9994C48.7173 67.1848 48.4658 67.2889 48.2036 67.2889Z" fill="#483698"/>
<path d="M45.8046 28.5315H44.1264V23.5725C44.1266 23.4269 44.1845 23.2872 44.2875 23.1842C44.3905 23.0812 44.5302 23.0233 44.6759 23.0231H45.2551C45.4008 23.0233 45.5405 23.0812 45.6435 23.1842C45.7465 23.2872 45.8044 23.4269 45.8046 23.5725V28.5315Z" fill="#D1CFE3"/>
<path d="M46.822 36.9702H30.7805L30.723 27.9292C30.7224 27.7895 30.7498 27.6511 30.8037 27.5223C30.8576 27.3934 30.9368 27.2767 31.0366 27.179L35.0664 23.254C35.2575 23.0671 35.5137 22.9616 35.781 22.9597L42.5256 22.898C42.6785 22.8971 42.8298 22.9297 42.9687 22.9936C43.1076 23.0576 43.2308 23.1512 43.3296 23.268L43.3301 23.2687L46.5336 27.1973C46.7199 27.4263 46.8217 27.7123 46.822 28.0075L46.822 36.9702Z" fill="#D1CFE3"/>
<path d="M46.822 36.9702H38.2014V28.8676C38.2015 28.6207 38.2895 28.3819 38.4496 28.194L42.1952 23.8028V23.8028C42.2925 23.6885 42.4135 23.5967 42.5499 23.5338C42.6862 23.4709 42.8346 23.4383 42.9848 23.4385H42.9887C43.1395 23.4389 43.2884 23.4723 43.425 23.5362C43.5616 23.6002 43.6826 23.6932 43.7795 23.8087L46.5788 27.1413C46.7358 27.3284 46.8219 27.5647 46.822 27.8089V36.9702Z" fill="#483698"/>
<path d="M43.1652 33.8581H41.918C41.8371 33.858 41.7595 33.8258 41.7023 33.7686C41.645 33.7114 41.6129 33.6338 41.6128 33.5529V32.5071C41.6129 32.4262 41.645 32.3486 41.7023 32.2914C41.7595 32.2342 41.8371 32.202 41.918 32.2019H43.1652C43.2462 32.202 43.3238 32.2342 43.381 32.2914C43.4382 32.3486 43.4704 32.4262 43.4705 32.5071V33.5529C43.4704 33.6338 43.4382 33.7114 43.381 33.7686C43.3238 33.8258 43.2462 33.858 43.1652 33.8581Z" fill="white"/>
<path d="M43.1652 31.1785H41.918C41.8371 31.1784 41.7595 31.1462 41.7023 31.0889C41.645 31.0317 41.6129 30.9541 41.6128 30.8732V29.8518C41.6129 29.7709 41.645 29.6933 41.7023 29.6361C41.7595 29.5788 41.8371 29.5467 41.918 29.5466H43.1652C43.2462 29.5467 43.3238 29.5788 43.381 29.6361C43.4382 29.6933 43.4704 29.7709 43.4705 29.8518V30.8732C43.4704 30.9541 43.4382 31.0317 43.381 31.0889C43.3238 31.1462 43.2462 31.1784 43.1652 31.1785Z" fill="white"/>
<path d="M35.4521 33.451H34.2048C34.1239 33.4509 34.0463 33.4187 33.9891 33.3615C33.9319 33.3043 33.8997 33.2267 33.8996 33.1458V32.1001C33.8997 32.0192 33.9319 31.9416 33.9891 31.8844C34.0463 31.8271 34.1239 31.7949 34.2048 31.7949H35.4521C35.533 31.7949 35.6106 31.8271 35.6678 31.8844C35.725 31.9416 35.7572 32.0192 35.7573 32.1001V33.1458C35.7572 33.2267 35.725 33.3043 35.6678 33.3615C35.6106 33.4187 35.533 33.4509 35.4521 33.451Z" fill="white"/>
<path d="M35.4521 30.7714H34.2048C34.1239 30.7713 34.0463 30.7391 33.9891 30.6819C33.9319 30.6246 33.8997 30.5471 33.8996 30.4661V29.4448C33.8997 29.3639 33.9319 29.2863 33.9891 29.2291C34.0463 29.1718 34.1239 29.1396 34.2048 29.1395H35.4521C35.533 29.1396 35.6106 29.1718 35.6678 29.2291C35.725 29.2863 35.7572 29.3639 35.7573 29.4448V30.4661C35.7572 30.5471 35.725 30.6246 35.6678 30.6819C35.6106 30.7391 35.533 30.7713 35.4521 30.7714Z" fill="white"/>
<path d="M49.9265 37.076H28.1068C28.0744 37.076 28.0434 37.0631 28.0205 37.0402C27.9976 37.0173 27.9847 36.9863 27.9847 36.9539C27.9847 36.9215 27.9976 36.8904 28.0205 36.8675C28.0434 36.8446 28.0744 36.8318 28.1068 36.8318H49.9265C49.9589 36.8318 49.99 36.8446 50.0129 36.8675C50.0358 36.8904 50.0486 36.9215 50.0486 36.9539C50.0486 36.9863 50.0358 37.0173 50.0129 37.0402C49.99 37.0631 49.9589 37.076 49.9265 37.076Z" fill="#D1CFE3"/>
<path d="M99.8779 85.1038H0.1221C0.0897172 85.1038 0.0586604 85.0909 0.0357622 85.068C0.012864 85.0451 0 85.0141 0 84.9817C0 84.9493 0.012864 84.9182 0.0357622 84.8953C0.0586604 84.8724 0.0897172 84.8596 0.1221 84.8596H99.8779C99.9103 84.8596 99.9413 84.8724 99.9642 84.8953C99.9871 84.9182 100 84.9493 100 84.9817C100 85.0141 99.9871 85.0451 99.9642 85.068C99.9413 85.0909 99.9103 85.1038 99.8779 85.1038Z" fill="#D1CFE3"/>
</svg>
